<svg width="304" height="85" viewBox="0 0 304 85" fill="none" xmlns="http://www.w3.org/2000/svg">
<path d="M30.3259 56.936C26.9089 60.3436 22.6377 62.0475 17.6545 62.0475C11.9595 62.0475 7.26114 59.7757 3.41701 55.0902L3.13226 83.6292H0V27.1191H3.41701V33.6505C6.97639 28.965 11.6748 26.6932 17.6545 26.6932C22.6377 26.6932 26.9089 28.397 30.1836 31.8047C33.6006 35.2123 35.3091 39.4718 35.3091 44.4413C35.4515 49.4108 33.743 53.5284 30.3259 56.936ZM27.9056 34.2184C25.0581 31.3787 21.641 29.9589 17.7969 29.9589C13.8104 29.9589 10.3934 31.3787 7.68827 34.0764C4.84076 36.9161 3.41701 40.3238 3.41701 44.2993C3.41701 48.2749 4.84076 51.6826 7.68827 54.3803C10.5358 57.22 13.9528 58.6398 17.7969 58.6398C21.7834 58.6398 25.2004 57.22 27.9056 54.5222C30.7531 51.6825 32.1768 48.2749 32.1768 44.2993C32.0344 40.4657 30.6107 37.0581 27.9056 34.2184Z" fill="white"/>
<path d="M59.7976 31.9466C58.801 31.2367 58.0891 30.8108 57.2349 30.3848C56.3806 29.9588 55.8111 29.8169 54.8145 29.8169C53.9602 29.8169 52.8212 30.3848 52.1094 30.9527C51.3975 31.5207 50.6856 32.2306 50.1161 33.0825C49.5466 33.9344 49.1195 34.9283 48.8347 35.9222C48.55 36.9161 48.4076 37.91 48.4076 38.7619V61.3375H45.4177V27.1191H48.4076V31.3787C49.1195 30.1008 49.8314 29.2489 50.9704 28.397C52.1094 27.5451 53.106 26.9772 54.3874 26.8352C55.8111 26.6932 57.2349 26.9772 58.2315 27.4031C59.2281 27.8291 60.3671 28.539 61.6485 29.5329L59.7976 31.9466Z" fill="white"/>
<path d="M91.405 56.936C87.9879 60.3436 83.7167 62.0475 78.7335 62.0475C73.7504 62.0475 69.4791 60.3436 66.2045 56.936C62.7875 53.5284 61.079 49.2688 61.079 44.2993C61.079 39.3298 62.7875 35.2123 66.2045 31.8046C69.6215 28.255 73.7504 26.5512 78.7335 26.5512C83.7167 26.5512 87.8456 28.255 91.2626 31.6627C94.6796 35.0703 96.3881 39.3298 96.3881 44.2993C96.5305 49.4108 94.822 53.5284 91.405 56.936ZM88.9846 34.2184C86.1371 31.3787 82.7201 29.9588 78.7335 29.9588C74.8894 29.9588 71.4724 31.3787 68.6249 34.2184C65.7774 37.0581 64.3536 40.4657 64.3536 44.2993C64.3536 48.2749 65.7774 51.6825 68.6249 54.3803C71.4724 57.22 74.8894 58.6398 78.7335 58.6398C82.7201 58.6398 86.1371 57.22 88.8422 54.5222C91.6897 51.6825 93.1134 48.2749 93.1134 44.2993C93.2558 40.3237 91.8321 36.9161 88.9846 34.2184Z" fill="#D71B5B"/>
<path d="M121.589 62.3314C116.463 62.3314 112.192 60.6276 108.775 57.22C105.358 53.8123 103.649 49.5528 103.649 44.4413C103.649 39.3298 105.358 35.0703 108.775 31.6627C112.192 28.255 116.463 26.5512 121.589 26.5512C125.86 26.5512 129.562 27.5451 132.124 29.5329V33.0825C132.124 33.0825 131.412 32.3726 130.273 31.8046C130.273 31.8046 128.85 30.9527 127.711 30.6688C125.575 29.9588 123.439 29.8169 121.589 29.8169C117.317 29.8169 113.9 31.0947 111.195 33.7924C108.49 36.4901 107.066 40.0398 107.066 44.2993C107.066 48.5589 108.49 51.9665 111.195 54.6642C114.897 58.3558 120.165 59.6337 126.856 58.2139C128.85 57.7879 130.558 56.3681 131.982 54.9482C132.124 54.8062 132.124 54.9482 132.124 54.9482V58.7818C132.124 58.9238 132.124 58.9238 131.982 59.0658C128.85 61.3375 125.433 62.3314 121.589 62.3314Z" fill="white"/>
<path d="M141.236 43.8734C141.236 48.5589 142.518 52.2505 144.938 54.9482C147.501 57.7879 151.203 59.0658 155.759 59.0658C158.037 59.0658 160.172 58.6398 162.165 57.9299C164.586 56.936 166.721 54.9482 168.572 51.8245L171.705 53.2444C169.569 57.362 166.152 60.0597 161.738 61.6215C160.03 62.1894 158.037 62.4734 155.901 62.4734C150.775 62.4734 146.504 60.7696 143.087 57.362C139.67 53.9543 137.962 49.6948 137.962 44.5833C137.962 39.4718 139.67 35.2123 142.945 31.8047C146.362 28.397 150.633 26.6932 155.759 26.6932C160.884 26.6932 165.155 28.255 168.43 31.3787C171.847 34.5024 173.555 38.6199 173.555 43.7314H141.236V43.8734ZM164.728 32.9405C162.165 31.0947 159.176 30.1008 155.759 30.1008C148.64 30.1008 143.941 33.6505 141.806 40.6077H169.711C169.142 37.3421 167.433 34.7863 164.728 32.9405Z" fill="white"/>
<path d="M181.529 43.5894C181.529 48.2749 182.81 51.9665 185.23 54.6642C187.793 57.5039 191.495 58.7818 196.051 58.7818C198.329 58.7818 200.464 58.3559 202.315 57.6459C204.736 56.652 206.871 54.6642 208.722 51.5406L211.854 52.9604C209.719 57.078 206.302 59.7757 201.888 61.3375C200.18 61.9055 198.186 62.1894 196.051 62.1894C190.925 62.1894 186.654 60.4856 183.237 57.078C179.82 53.6703 178.111 49.4108 178.111 44.2993C178.111 39.1879 179.82 34.9283 183.095 31.5207C186.512 28.113 190.783 26.4092 195.908 26.4092C201.034 26.4092 205.305 27.9711 208.58 31.0947C211.997 34.2184 213.705 38.336 213.705 43.4474H181.529V43.5894ZM205.02 32.7986C202.458 30.9527 199.468 29.9589 196.051 29.9589C188.932 29.9589 184.234 33.5085 182.098 40.4657H210.004C209.434 37.2001 207.726 34.6444 205.02 32.7986Z" fill="white"/>
<path d="M251.577 61.4795V55.3742C247.875 59.9177 243.177 62.0475 237.624 62.0475C232.641 62.0475 228.37 60.3436 225.095 56.936C221.678 53.5284 219.97 49.2688 219.97 44.2993C219.97 39.3299 221.678 35.0703 225.095 31.8046C228.512 28.397 232.784 26.6932 237.767 26.6932C243.319 26.6932 247.875 28.9649 251.72 33.3665V0H255.137V61.4795H251.577ZM247.733 34.2184C244.886 31.3787 241.469 29.9588 237.624 29.9588C233.638 29.9588 230.221 31.3787 227.516 34.0764C224.668 36.9161 223.244 40.3237 223.244 44.2993C223.244 48.2749 224.668 51.6825 227.516 54.3803C230.363 57.22 233.78 58.6398 237.624 58.6398C241.611 58.6398 245.028 57.22 247.733 54.5222C250.581 51.6825 252.004 48.2749 252.004 44.2993C252.004 40.4657 250.581 37.0581 247.733 34.2184Z" fill="white"/>
<path d="M265.672 61.4795V27.1192H269.089V61.4795H265.672Z" fill="#D71B5B"/>
<path d="M299.887 61.3375L290.161 47.139L280.337 61.4795H276.208L288.025 44.1574L276.493 27.1192H280.479L290.018 41.3177L299.558 27.1192H303.544L292.154 44.0154L303.829 61.3375H299.887Z" fill="#D71B5B"/>
<path d="M51.5399 20.8718C57.662 12.2107 67.6283 6.6733 79.0183 6.6733C90.4083 6.6733 100.375 12.3527 106.497 20.8718H110.91C104.361 10.2229 92.5439 2.98169 79.0183 2.98169C65.4926 2.98169 53.6755 10.0809 47.1262 20.8718H51.5399Z" fill="#D71B5B"/>
<path d="M269.651 22.7092C269.651 23.961 268.633 24.9758 267.378 24.9758C266.123 24.9758 265.105 23.961 265.105 22.7092C265.105 21.4573 266.123 20.4425 267.378 20.4425C268.633 20.4425 269.651 21.4573 269.651 22.7092Z" fill="#D71B5B"/>
<path d="M81.8669 44.7313C81.8669 46.3 80.5917 47.5717 79.0187 47.5717C77.4457 47.5717 76.1705 46.3 76.1705 44.7313C76.1705 43.1625 77.4457 41.8908 79.0187 41.8908C80.5917 41.8908 81.8669 43.1625 81.8669 44.7313Z" fill="white"/>
<path d="M31.6954 81.3574H26.8547L25.7157 84.3391H24.1495L28.4208 73.4063H30.1293L34.4006 84.3391H32.8344L31.6954 81.3574ZM31.1259 80.0795L29.1327 74.9681L27.2818 80.0795H31.1259Z" fill="white"/>
<path d="M38.1023 82.9192L39.0989 82.0673C39.8108 82.9192 40.9498 83.4872 42.0888 83.4872C43.9397 83.4872 44.6516 82.7773 44.6516 81.6414C44.6516 80.5055 43.655 80.0795 41.9465 79.6536C40.0956 79.2276 38.3871 78.6597 38.3871 76.5299C38.3871 74.6841 39.8108 73.4062 42.2312 73.4062C43.7973 73.4062 45.0787 73.9742 45.933 75.1101L44.794 75.962C44.2245 75.1101 43.3702 74.6841 42.0888 74.6841C40.5227 74.6841 39.6684 75.394 39.6684 76.3879C39.6684 77.5238 40.6651 77.8078 42.3736 78.2337C44.2245 78.8017 45.933 79.2276 45.933 81.3574C45.933 83.3452 44.5092 84.6231 41.9465 84.6231C40.5227 84.6231 39.0989 84.0551 38.1023 82.9192Z" fill="white"/>
<path d="M56.3264 73.5482L52.1975 80.0795V84.3391H50.7737V80.0795L46.6448 73.4062H48.3533L51.4856 78.6597L54.6178 73.4062H56.3264V73.5482Z" fill="white"/>
<path d="M68.4283 73.5482V84.4811H67.0045V75.678L63.5875 84.4811H62.3061L58.8891 75.678V84.4811H57.4654V73.5482H59.4586L62.8756 82.6353L66.2926 73.5482H68.4283Z" fill="white"/>
<path d="M75.1199 73.5482C77.3979 73.5482 79.1064 74.8261 79.1064 77.0978C79.1064 79.3696 77.3979 80.6475 75.1199 80.6475H72.2724V84.4811H70.8486V73.5482H75.1199ZM75.1199 79.3696C76.5436 79.3696 77.5403 78.6597 77.5403 77.0978C77.5403 75.536 76.5436 74.8261 75.1199 74.8261H72.13V79.3696H75.1199Z" fill="white"/>
<path d="M80.5302 84.4811V73.5482H81.9539V78.3757H87.6489V73.5482H89.0727V84.4811H87.6489V79.6536H81.9539V84.4811H80.5302Z" fill="white"/>
<path d="M96.0491 73.4062C99.3237 73.4062 101.175 75.82 101.175 78.9437C101.175 82.0673 99.4661 84.6231 96.0491 84.6231C92.7744 84.6231 90.9235 82.2093 90.9235 79.0857C91.0659 75.962 92.7744 73.4062 96.0491 73.4062ZM96.1914 83.3452C98.6118 83.3452 99.7508 81.3574 99.7508 78.9437C99.7508 76.6719 98.6118 74.5421 96.0491 74.5421C93.6287 74.5421 92.4897 76.5299 92.4897 78.9437C92.4897 81.2154 93.6287 83.3452 96.1914 83.3452Z" fill="white"/>
<path d="M111.995 73.5482V84.4811H110.714L104.449 75.82V84.4811H103.025V73.5482H104.449L110.429 81.9253V73.5482H111.995Z" fill="white"/>
<path d="M122.673 73.5482L118.544 80.0795V84.3391H117.121V80.0795L112.992 73.4062H114.7L117.832 78.6597L120.965 73.4062H122.673V73.5482Z" fill="white"/>
<path d="M128.938 81.3574H124.097L122.958 84.3391H121.392L125.663 73.4062H127.372L131.643 84.3391H130.077L128.938 81.3574ZM128.368 80.0795L126.375 74.9681L124.382 80.0795H128.368Z" fill="#D71B5B"/>
<path d="M132.782 84.4811V73.5482H134.206V84.4811H132.782Z" fill="#D71B5B"/>
<path d="M139.901 84.4811V73.5482H141.324V84.4811H139.901Z" fill="white"/>
<path d="M152.572 73.5482V84.4811H151.291L145.026 75.82V84.4811H143.602V73.5482H145.026L151.148 81.9253V73.5482H152.572Z" fill="white"/>
<path d="M154.85 73.5482H158.552C162.254 73.5482 164.104 75.962 164.104 78.9437C164.104 82.2093 161.969 84.3391 158.694 84.3391H154.85V73.5482ZM158.552 83.2032C160.972 83.2032 162.538 81.7834 162.538 79.0856C162.538 76.104 160.687 74.8261 158.409 74.8261H156.274V83.2032H158.552Z" fill="white"/>
<path d="M173.074 73.5482H174.498V80.6475C174.498 83.0612 172.932 84.6231 170.084 84.6231C167.664 84.6231 165.813 83.2032 165.813 80.6475V73.5482H167.237V80.6475C167.237 82.3513 168.376 83.3452 170.227 83.3452C172.077 83.3452 173.074 82.3513 173.074 80.6475V73.5482Z" fill="white"/>
<path d="M175.922 82.9192L177.061 82.0673C177.772 82.9192 178.911 83.4872 180.05 83.4872C181.901 83.4872 182.613 82.7773 182.613 81.6414C182.613 80.5055 181.617 80.0795 179.908 79.6536C178.057 79.2276 176.349 78.6597 176.349 76.5299C176.349 74.6841 177.772 73.4062 180.193 73.4062C181.759 73.4062 183.04 73.9742 183.895 75.1101L182.756 75.962C182.186 75.1101 181.332 74.6841 180.05 74.6841C178.484 74.6841 177.63 75.394 177.63 76.3879C177.63 77.5238 178.627 77.8078 180.335 78.2337C182.186 78.8017 183.895 79.2276 183.895 81.3574C183.895 83.3452 182.471 84.6231 179.908 84.6231C178.342 84.6231 176.918 84.0551 175.922 82.9192Z" fill="white"/>
<path d="M188.308 84.4811V74.8261H184.464V73.5482H193.434V74.8261H189.59V84.4811H188.308Z" fill="white"/>
<path d="M199.129 79.7956H196.281V84.3391H194.858V73.4062H199.271C201.264 73.4062 202.831 74.5421 202.831 76.5299C202.831 77.9498 201.976 78.9437 200.695 79.3696L203.115 84.3391H201.549L199.129 79.7956ZM196.281 78.6597H199.271C200.41 78.6597 201.407 78.0918 201.407 76.8139C201.407 75.536 200.553 74.9681 199.271 74.9681H196.281V78.6597Z" fill="white"/>
<path d="M204.681 84.4811V73.5482H206.105V84.4811H204.681Z" fill="white"/>
<path d="M214.79 81.3574H209.949L208.81 84.3391H207.244L211.515 73.4062H213.224L217.495 84.3391H215.929L214.79 81.3574ZM214.363 80.0795L212.37 74.9681L210.376 80.0795H214.363Z" fill="white"/>
<path d="M218.777 73.5482H220.2V83.2032H225.753V84.4811H218.777V73.5482Z" fill="white"/>
<path d="M229.597 82.9192L230.736 82.0673C231.448 82.9192 232.587 83.4872 233.726 83.4872C235.577 83.4872 236.289 82.7773 236.289 81.6414C236.289 80.5055 235.292 80.0795 233.584 79.6536C231.733 79.2276 230.024 78.6597 230.024 76.5299C230.024 74.6841 231.448 73.4062 233.868 73.4062C235.434 73.4062 236.716 73.9742 237.57 75.1101L236.431 75.962C235.862 75.1101 235.007 74.6841 233.726 74.6841C232.16 74.6841 231.306 75.394 231.306 76.3879C231.306 77.5238 232.302 77.8078 234.011 78.2337C235.862 78.8017 237.57 79.2276 237.57 81.3574C237.57 83.3452 236.146 84.6231 233.584 84.6231C232.017 84.6231 230.594 84.0551 229.597 82.9192Z" fill="white"/>
<path d="M243.977 73.4062C247.252 73.4062 249.103 75.82 249.103 78.9437C249.103 82.0673 247.394 84.6231 243.977 84.6231C240.702 84.6231 238.851 82.2093 238.851 79.0857C238.851 75.962 240.702 73.4062 243.977 73.4062ZM243.977 83.3452C246.397 83.3452 247.536 81.3574 247.536 78.9437C247.536 76.6719 246.397 74.5421 243.835 74.5421C241.414 74.5421 240.275 76.5299 240.275 78.9437C240.418 81.2154 241.557 83.3452 243.977 83.3452Z" fill="white"/>
<path d="M250.953 73.5482H252.377V83.2032H257.93V84.4811H250.953V73.5482Z" fill="white"/>
<path d="M266.33 73.5482H267.754V80.6475C267.754 83.0612 266.188 84.6231 263.34 84.6231C260.92 84.6231 259.069 83.2032 259.069 80.6475V73.5482H260.493V80.6475C260.493 82.3513 261.632 83.3452 263.482 83.3452C265.333 83.3452 266.33 82.3513 266.33 80.6475V73.5482Z" fill="white"/>
<path d="M272.879 84.4811V74.8261H269.035V73.5482H278.005V74.8261H274.161V84.4811H272.879Z" fill="white"/>
<path d="M279.428 84.4811V73.5482H280.852V84.4811H279.428Z" fill="white"/>
<path d="M287.829 73.4062C291.103 73.4062 292.954 75.82 292.954 78.9437C292.954 82.0673 291.246 84.6231 287.829 84.6231C284.554 84.6231 282.703 82.2093 282.703 79.0857C282.703 75.962 284.412 73.4062 287.829 73.4062ZM287.829 83.3452C290.249 83.3452 291.388 81.3574 291.388 78.9437C291.388 76.6719 290.249 74.5421 287.686 74.5421C285.266 74.5421 284.127 76.5299 284.127 78.9437C284.127 81.2154 285.266 83.3452 287.829 83.3452Z" fill="white"/>
<path d="M303.632 73.5482V84.4811H302.351L296.086 75.82V84.4811H294.663V73.5482H296.086L302.066 81.9253V73.5482H303.632Z" fill="white"/>
</svg>
